HIERARCHY
ROOT Hips
{
	OFFSET 0.00000 0.00000 0.00000
	CHANNELS 6 Xposition Yposition Zposition Zrotation Yrotation Xrotation 
	JOINT LHipJoint
	{
		OFFSET 0 0 0
		CHANNELS 3 Zrotation Yrotation Xrotation
		JOINT LeftUpLeg
		{
			OFFSET 1.74857 -1.85566 0.69197
			CHANNELS 3 Zrotation Yrotation Xrotation
			JOINT LeftLeg
			{
				OFFSET 2.40003 -6.59403 0.00000
				CHANNELS 3 Zrotation Yrotation Xrotation
				JOINT LeftFoot
				{
					OFFSET 2.82169 -7.75254 0.00000
					CHANNELS 3 Zrotation Yrotation Xrotation
					JOINT LeftToeBase
					{
						OFFSET 0.16466 -0.45240 2.26890
						CHANNELS 3 Zrotation Yrotation Xrotation
						End Site
						{
							OFFSET 0.00000 -0.00000 1.16486
						}
					}
				}
			}
		}
	}
	JOINT RHipJoint
	{
		OFFSET 0 0 0
		CHANNELS 3 Zrotation Yrotation Xrotation
		JOINT RightUpLeg
		{
			OFFSET -1.64169 -1.85566 0.69197
			CHANNELS 3 Zrotation Yrotation Xrotation
			JOINT RightLeg
			{
				OFFSET -2.41814 -6.64379 0.00000
				CHANNELS 3 Zrotation Yrotation Xrotation
				JOINT RightFoot
				{
					OFFSET -2.80588 -7.70911 0.00000
					CHANNELS 3 Zrotation Yrotation Xrotation
					JOINT RightToeBase
					{
						OFFSET -0.19098 -0.52472 2.25401
						CHANNELS 3 Zrotation Yrotation Xrotation
						End Site
						{
							OFFSET -0.00000 -0.00000 1.16333
						}
					}
				}
			}
		}
	}
	JOINT LowerBack
	{
		OFFSET 0 0 0
		CHANNELS 3 Zrotation Yrotation Xrotation
		JOINT Spine
		{
			OFFSET -0.02828 2.14690 -0.11061
			CHANNELS 3 Zrotation Yrotation Xrotation
			JOINT Spine1
			{
				OFFSET -0.00167 2.15299 0.00759
				CHANNELS 3 Zrotation Yrotation Xrotation
				JOINT Neck
				{
					OFFSET 0 0 0
					CHANNELS 3 Zrotation Yrotation Xrotation
					JOINT Neck1
					{
						OFFSET -0.09296 1.90118 0.07197
						CHANNELS 3 Zrotation Yrotation Xrotation
						JOINT Head
						{
							OFFSET 0.08490 1.89526 -0.24604
							CHANNELS 3 Zrotation Yrotation Xrotation
							End Site
							{
								OFFSET 0.03186 1.92109 -0.09483
							}
						}
					}
				}
				JOINT LeftShoulder
				{
					OFFSET 0 0 0
					CHANNELS 3 Zrotation Yrotation Xrotation
					JOINT LeftArm
					{
						OFFSET 3.21569 1.44644 -0.03720
						CHANNELS 3 Zrotation Yrotation Xrotation
						JOINT LeftForeArm
						{
							OFFSET 5.47651 -0.00000 -0.00000
							CHANNELS 3 Zrotation Yrotation Xrotation
							JOINT LeftHand
							{
								OFFSET 3.09058 -0.00000 -0.00000
								CHANNELS 3 Zrotation Yrotation Xrotation
								JOINT LeftFingerBase
								{
									OFFSET 0 0 0
									CHANNELS 3 Zrotation Yrotation Xrotation
									JOINT LeftHandIndex1
									{
										OFFSET 0.77161 -0.00000 -0.00000
										CHANNELS 3 Zrotation Yrotation Xrotation
										End Site
										{
											OFFSET 0.62209 -0.00000 -0.00000
										}
									}
								}
								JOINT LThumb
								{
									OFFSET 0 0 0
									CHANNELS 3 Zrotation Yrotation Xrotation
									End Site
									{
										OFFSET 0.63159 -0.00000 0.63159
									}
								}
							}
						}
					}
				}
				JOINT RightShoulder
				{
					OFFSET 0 0 0
					CHANNELS 3 Zrotation Yrotation Xrotation
					JOINT RightArm
					{
						OFFSET -3.38693 1.28904 -0.07093
						CHANNELS 3 Zrotation Yrotation Xrotation
						JOINT RightForeArm
						{
							OFFSET -5.14182 -0.00000 -0.00000
							CHANNELS 3 Zrotation Yrotation Xrotation
							JOINT RightHand
							{
								OFFSET -3.35565 -0.00000 -0.00000
								CHANNELS 3 Zrotation Yrotation Xrotation
								JOINT RightFingerBase
								{
									OFFSET 0 0 0
									CHANNELS 3 Zrotation Yrotation Xrotation
									JOINT RightHandIndex1
									{
										OFFSET -0.80104 -0.00000 -0.00000
										CHANNELS 3 Zrotation Yrotation Xrotation
										End Site
										{
											OFFSET -0.64582 -0.00000 -0.00000
										}
									}
								}
								JOINT RThumb
								{
									OFFSET 0 0 0
									CHANNELS 3 Zrotation Yrotation Xrotation
									End Site
									{
										OFFSET -0.65568 -0.00000 0.65568
									}
								}
							}
						}
					}
				}
			}
		}
	}
}
MOTION
Frames: 6
Frame Time: .0083333
-0.1389 18.1265 0.0656 0 0 0 0 0 0 -21 0 0 0 0 0 0 0 0 0 0 0 0 0 0 21 0 0 0 0 0 0 0 0 0 0 0 0 0 0 0 0 0 0 0 0 0 0 -16 0 0 21 0 0 11 0 0 0 -8 0 0 0 0 0 0 0 0 0 0 0 0 0 0 0 0 0 0 0 0 8 0 0 0 0 0 0 0 0 0 0 0 0 0 0 0 0 0
-0.1389 18.1265 0.0656 3.1755 -3.6082 4.0771 0.0000 0.0000 0.0000 -22.5025 -3.0665 4.5969 0.0744 1.7595 4.8414 0.2602 9.6896 -17.5114 0.7000 -5.3481 -14.9041 0.0000 0.0000 0.0000 15.8675 9.7559 -1.8613 -0.9545 -6.2214 17.4281 -0.5568 -8.9006 -20.0362 -0.4634 4.3663 -12.1095 -1.2101 2.3695 0.6363 -0.6438 3.1340 -1.2398 -0.0482 1.5770 -1.6551 -6.4257 -3.2012 2.5648 3.3138 -4.4886 5.6204 2.1250 -2.3246 1.5728 0.0000 0.0000 0.0000 -41.0732 17.4065 90.1646 104.6944 -59.1682 -72.6901 -0.0000 0.0000 -2.3853 4.7336 6.2608 0.5174 -7.1250 0.0000 -0.0000 -18.2538 35.7254 4.3430 0.0000 0.0000 0.0000 46.7489 -19.3755 87.9928 -88.2844 59.9889 -58.5143 0.0000 -0.0000 -25.9116 3.3138 26.3677 1.4731 7.1250 -0.0000 -0.0000 19.7458 -4.8262 19.2180
-0.1384 18.1268 0.0655 3.1467 -3.6418 4.0848 0.0000 0.0000 0.0000 -22.4758 -3.0231 4.6131 0.0724 1.7359 4.7763 0.2582 9.7393 -17.5423 0.7289 -5.4550 -15.2111 0.0000 0.0000 0.0000 15.8958 9.7660 -1.8776 -0.9549 -6.2227 17.4321 -0.5475 -8.9450 -19.9811 -0.4798 4.4419 -12.3234 -1.1905 2.3675 0.6166 -0.6265 3.1322 -1.2361 -0.0403 1.5760 -1.6402 -6.4450 -3.1832 2.5964 3.3223 -4.4668 5.5944 2.1322 -2.3139 1.5586 0.0000 -0.0000 0.0000 -41.1002 17.4384 90.1442 104.6679 -59.1712 -72.6674 -0.0000 0.0000 -2.3634 4.9377 6.2303 0.5372 -7.1250 0.0000 -0.0000 -18.0827 35.7082 4.3067 0.0000 -0.0000 0.0000 46.7383 -19.3468 88.0038 -88.2538 59.9885 -58.4878 0.0000 -0.0000 -25.8875 3.2621 26.3967 1.4515 7.1250 -0.0000 -0.0000 19.7151 -4.7966 19.1957
-0.1375 18.1275 0.0672 3.1719 -3.7076 4.1039 0.0000 0.0000 0.0000 -22.5080 -2.9391 4.6605 0.0681 1.6834 4.6315 0.2503 9.7822 -17.4939 0.7677 -5.5951 -15.6141 0.0000 0.0000 0.0000 15.8504 9.8119 -1.9310 -0.9582 -6.2332 17.4627 -0.5472 -8.9381 -19.9722 -0.4895 4.4860 -12.4481 -1.2216 2.3739 0.5513 -0.6203 3.1417 -1.2194 -0.0134 1.5809 -1.5885 -6.5133 -3.1645 2.6116 3.3639 -4.4452 5.5764 2.1589 -2.3040 1.5523 -0.0000 0.0000 0.0000 -41.1256 17.4949 90.0861 104.7366 -59.1633 -72.7264 -0.0000 0.0000 -2.3233 5.2331 6.0728 0.5551 -7.1250 0.0000 -0.0000 -17.8092 35.5749 4.2967 -0.0000 0.0000 0.0000 46.6969 -19.3279 88.0048 -88.3246 59.9894 -58.5491 0.0000 -0.0000 -25.8814 3.3007 26.3702 1.4674 7.1250 -0.0000 -0.0000 19.7382 -4.8233 19.2108
-0.1362 18.1284 0.0670 3.1967 -3.7687 4.1214 0.0000 0.0000 0.0000 -22.5452 -2.9009 4.5938 0.0699 1.7059 4.6935 0.2527 9.7624 -17.5006 0.7678 -5.5952 -15.6143 0.0000 0.0000 0.0000 15.8056 9.8349 -1.9586 -0.9575 -6.2308 17.4556 -0.5496 -8.8795 -19.9419 -0.4952 4.5115 -12.5204 -1.2426 2.3865 0.5406 -0.6236 3.1584 -1.2232 -0.0050 1.5895 -1.5876 -6.4965 -3.1619 2.6631 3.3406 -4.4430 5.5051 2.1492 -2.3025 1.5189 0.0000 0.0000 0.0000 -41.1419 17.5329 90.0573 104.7897 -59.1572 -72.7720 -0.0000 0.0000 -2.3062 5.3640 6.0025 0.5626 -7.1250 0.0000 -0.0000 -17.6881 35.5152 4.2920 0.0000 0.0000 0.0000 46.6591 -19.3490 88.0104 -88.4299 59.9907 -58.6403 0.0000 -0.0000 -25.8942 3.4445 26.3427 1.5300 7.1250 -0.0000 -0.0000 19.8213 -4.8554 19.2902
-0.1358 18.1288 0.0649 3.1713 -3.8090 4.1505 0.0000 0.0000 0.0000 -22.5202 -2.8876 4.5108 0.0721 1.7321 4.7657 0.2562 9.7168 -17.4934 0.7495 -5.5299 -15.4264 0.0000 0.0000 0.0000 15.8257 9.8792 -1.9879 -0.9567 -6.2284 17.4485 -0.5412 -8.9235 -19.8965 -0.4908 4.4921 -12.4653 -1.2146 2.4165 0.5409 -0.6252 3.1987 -1.2322 -0.0234 1.6093 -1.5957 -6.4263 -3.1916 2.6514 3.2715 -4.4781 5.5096 2.1130 -2.3194 1.5201 -0.0000 0.0000 0.0000 -41.1178 17.4882 90.0833 104.8209 -59.1535 -72.7988 -0.0000 0.0000 -2.3214 5.3291 6.0382 0.5622 -7.1250 0.0000 -0.0000 -17.7242 35.5473 4.2870 -0.0000 0.0000 0.0000 46.6821 -19.4152 87.9502 -88.4885 59.9914 -58.6910 0.0000 -0.0000 -25.9003 3.5137 26.3167 1.5593 7.1250 -0.0000 -0.0000 19.8617 -4.8827 19.3242
